<mxfile host="Electron" modified="2023-04-14T18:05:43.352Z" agent="Mozilla/5.0 (Windows NT 10.0; Win64; x64) AppleWebKit/537.36 (KHTML, like Gecko) draw.io/21.1.2 Chrome/106.0.5249.199 Electron/21.4.3 Safari/537.36" etag="X1A5fnqDYeJI8MmuB4pS" version="21.1.2" type="device">
  <diagram id="C5RBs43oDa-KdzZeNtuy" name="Page-1">
    <mxGraphModel dx="712" dy="835" grid="1" gridSize="10" guides="1" tooltips="1" connect="1" arrows="1" fold="1" page="1" pageScale="1" pageWidth="827" pageHeight="1169" math="0" shadow="0">
      <root>
        <mxCell id="WIyWlLk6GJQsqaUBKTNV-0" />
        <mxCell id="WIyWlLk6GJQsqaUBKTNV-1" parent="WIyWlLk6GJQsqaUBKTNV-0" />
        <mxCell id="DEYODoF0MY2rl1qmzGjC-0" value="INIZIO" style="ellipse;whiteSpace=wrap;html=1;" vertex="1" parent="WIyWlLk6GJQsqaUBKTNV-1">
          <mxGeometry x="400" y="120" width="80" height="40" as="geometry" />
        </mxCell>
        <mxCell id="DEYODoF0MY2rl1qmzGjC-1" value="" style="endArrow=classic;html=1;rounded=0;exitX=0.5;exitY=1;exitDx=0;exitDy=0;entryX=0.5;entryY=0;entryDx=0;entryDy=0;" edge="1" parent="WIyWlLk6GJQsqaUBKTNV-1" source="DEYODoF0MY2rl1qmzGjC-0" target="DEYODoF0MY2rl1qmzGjC-3">
          <mxGeometry width="50" height="50" relative="1" as="geometry">
            <mxPoint x="340" y="450" as="sourcePoint" />
            <mxPoint x="440" y="200" as="targetPoint" />
          </mxGeometry>
        </mxCell>
        <mxCell id="DEYODoF0MY2rl1qmzGjC-3" value="isZero = false" style="rounded=0;whiteSpace=wrap;html=1;" vertex="1" parent="WIyWlLk6GJQsqaUBKTNV-1">
          <mxGeometry x="395" y="200" width="90" height="30" as="geometry" />
        </mxCell>
        <mxCell id="DEYODoF0MY2rl1qmzGjC-4" value="" style="endArrow=classic;html=1;rounded=0;exitX=0.5;exitY=1;exitDx=0;exitDy=0;entryX=0.5;entryY=0;entryDx=0;entryDy=0;" edge="1" parent="WIyWlLk6GJQsqaUBKTNV-1" source="DEYODoF0MY2rl1qmzGjC-3" target="DEYODoF0MY2rl1qmzGjC-11">
          <mxGeometry width="50" height="50" relative="1" as="geometry">
            <mxPoint x="320" y="370" as="sourcePoint" />
            <mxPoint x="270" y="280" as="targetPoint" />
          </mxGeometry>
        </mxCell>
        <mxCell id="DEYODoF0MY2rl1qmzGjC-5" value="leggi num1, num2" style="rounded=0;whiteSpace=wrap;html=1;" vertex="1" parent="WIyWlLk6GJQsqaUBKTNV-1">
          <mxGeometry x="390" y="310" width="100" height="30" as="geometry" />
        </mxCell>
        <mxCell id="DEYODoF0MY2rl1qmzGjC-6" value="if ( num1 == 0 || num2 == 0)" style="rhombus;whiteSpace=wrap;html=1;" vertex="1" parent="WIyWlLk6GJQsqaUBKTNV-1">
          <mxGeometry x="354.5" y="370" width="171" height="120" as="geometry" />
        </mxCell>
        <mxCell id="DEYODoF0MY2rl1qmzGjC-7" value="" style="endArrow=classic;html=1;rounded=0;exitX=0.5;exitY=1;exitDx=0;exitDy=0;entryX=0.5;entryY=0;entryDx=0;entryDy=0;" edge="1" parent="WIyWlLk6GJQsqaUBKTNV-1" source="DEYODoF0MY2rl1qmzGjC-5" target="DEYODoF0MY2rl1qmzGjC-6">
          <mxGeometry width="50" height="50" relative="1" as="geometry">
            <mxPoint x="345.5" y="500" as="sourcePoint" />
            <mxPoint x="395.5" y="450" as="targetPoint" />
          </mxGeometry>
        </mxCell>
        <mxCell id="DEYODoF0MY2rl1qmzGjC-8" value="isZero = true" style="rounded=0;whiteSpace=wrap;html=1;" vertex="1" parent="WIyWlLk6GJQsqaUBKTNV-1">
          <mxGeometry x="525.5" y="480" width="90" height="30" as="geometry" />
        </mxCell>
        <mxCell id="DEYODoF0MY2rl1qmzGjC-9" value="" style="endArrow=classic;html=1;rounded=0;exitX=1;exitY=0.5;exitDx=0;exitDy=0;entryX=0.5;entryY=0;entryDx=0;entryDy=0;" edge="1" parent="WIyWlLk6GJQsqaUBKTNV-1" source="DEYODoF0MY2rl1qmzGjC-6" target="DEYODoF0MY2rl1qmzGjC-8">
          <mxGeometry width="50" height="50" relative="1" as="geometry">
            <mxPoint x="345.5" y="500" as="sourcePoint" />
            <mxPoint x="395.5" y="450" as="targetPoint" />
            <Array as="points">
              <mxPoint x="571" y="430" />
            </Array>
          </mxGeometry>
        </mxCell>
        <mxCell id="DEYODoF0MY2rl1qmzGjC-10" value="TRUE" style="edgeLabel;html=1;align=center;verticalAlign=middle;resizable=0;points=[];" vertex="1" connectable="0" parent="DEYODoF0MY2rl1qmzGjC-9">
          <mxGeometry x="-0.4821" relative="1" as="geometry">
            <mxPoint x="1" as="offset" />
          </mxGeometry>
        </mxCell>
        <mxCell id="DEYODoF0MY2rl1qmzGjC-11" value="" style="ellipse;whiteSpace=wrap;html=1;aspect=fixed;" vertex="1" parent="WIyWlLk6GJQsqaUBKTNV-1">
          <mxGeometry x="435" y="260" width="10" height="10" as="geometry" />
        </mxCell>
        <mxCell id="DEYODoF0MY2rl1qmzGjC-12" value="" style="endArrow=classic;html=1;rounded=0;entryX=0.5;entryY=0;entryDx=0;entryDy=0;" edge="1" parent="WIyWlLk6GJQsqaUBKTNV-1" target="DEYODoF0MY2rl1qmzGjC-5">
          <mxGeometry width="50" height="50" relative="1" as="geometry">
            <mxPoint x="440" y="270" as="sourcePoint" />
            <mxPoint x="390" y="380" as="targetPoint" />
          </mxGeometry>
        </mxCell>
        <mxCell id="DEYODoF0MY2rl1qmzGjC-13" value="" style="endArrow=classic;html=1;rounded=0;exitX=0.5;exitY=1;exitDx=0;exitDy=0;entryX=1;entryY=0.5;entryDx=0;entryDy=0;" edge="1" parent="WIyWlLk6GJQsqaUBKTNV-1" source="DEYODoF0MY2rl1qmzGjC-8" target="DEYODoF0MY2rl1qmzGjC-14">
          <mxGeometry width="50" height="50" relative="1" as="geometry">
            <mxPoint x="340" y="430" as="sourcePoint" />
            <mxPoint x="520" y="570" as="targetPoint" />
            <Array as="points">
              <mxPoint x="570" y="557" />
            </Array>
          </mxGeometry>
        </mxCell>
        <mxCell id="DEYODoF0MY2rl1qmzGjC-14" value="" style="ellipse;whiteSpace=wrap;html=1;aspect=fixed;" vertex="1" parent="WIyWlLk6GJQsqaUBKTNV-1">
          <mxGeometry x="433" y="550" width="14" height="14" as="geometry" />
        </mxCell>
        <mxCell id="DEYODoF0MY2rl1qmzGjC-15" value="" style="endArrow=classic;html=1;rounded=0;entryX=0.5;entryY=0;entryDx=0;entryDy=0;exitX=0.5;exitY=1;exitDx=0;exitDy=0;" edge="1" parent="WIyWlLk6GJQsqaUBKTNV-1" source="DEYODoF0MY2rl1qmzGjC-6" target="DEYODoF0MY2rl1qmzGjC-14">
          <mxGeometry width="50" height="50" relative="1" as="geometry">
            <mxPoint x="260" y="530" as="sourcePoint" />
            <mxPoint x="310" y="480" as="targetPoint" />
          </mxGeometry>
        </mxCell>
        <mxCell id="DEYODoF0MY2rl1qmzGjC-48" value="FALSE" style="edgeLabel;html=1;align=center;verticalAlign=middle;resizable=0;points=[];" vertex="1" connectable="0" parent="DEYODoF0MY2rl1qmzGjC-15">
          <mxGeometry x="-0.5333" y="2" relative="1" as="geometry">
            <mxPoint as="offset" />
          </mxGeometry>
        </mxCell>
        <mxCell id="DEYODoF0MY2rl1qmzGjC-16" value="media = (float)(num1+num2)/2" style="rounded=0;whiteSpace=wrap;html=1;" vertex="1" parent="WIyWlLk6GJQsqaUBKTNV-1">
          <mxGeometry x="355.5" y="600" width="170" height="30" as="geometry" />
        </mxCell>
        <mxCell id="DEYODoF0MY2rl1qmzGjC-17" value="" style="endArrow=classic;html=1;rounded=0;exitX=0.5;exitY=1;exitDx=0;exitDy=0;entryX=0.5;entryY=0;entryDx=0;entryDy=0;" edge="1" parent="WIyWlLk6GJQsqaUBKTNV-1" source="DEYODoF0MY2rl1qmzGjC-14" target="DEYODoF0MY2rl1qmzGjC-16">
          <mxGeometry width="50" height="50" relative="1" as="geometry">
            <mxPoint x="340" y="530" as="sourcePoint" />
            <mxPoint x="390" y="480" as="targetPoint" />
          </mxGeometry>
        </mxCell>
        <mxCell id="DEYODoF0MY2rl1qmzGjC-18" value="stampo media" style="shape=parallelogram;perimeter=parallelogramPerimeter;whiteSpace=wrap;html=1;fixedSize=1;" vertex="1" parent="WIyWlLk6GJQsqaUBKTNV-1">
          <mxGeometry x="380.5" y="670" width="120" height="30" as="geometry" />
        </mxCell>
        <mxCell id="DEYODoF0MY2rl1qmzGjC-19" value="" style="endArrow=classic;html=1;rounded=0;exitX=0.5;exitY=1;exitDx=0;exitDy=0;entryX=0.5;entryY=0;entryDx=0;entryDy=0;" edge="1" parent="WIyWlLk6GJQsqaUBKTNV-1" source="DEYODoF0MY2rl1qmzGjC-16" target="DEYODoF0MY2rl1qmzGjC-18">
          <mxGeometry width="50" height="50" relative="1" as="geometry">
            <mxPoint x="340" y="530" as="sourcePoint" />
            <mxPoint x="390" y="480" as="targetPoint" />
          </mxGeometry>
        </mxCell>
        <mxCell id="DEYODoF0MY2rl1qmzGjC-20" value="num2 &amp;gt; media" style="rhombus;whiteSpace=wrap;html=1;" vertex="1" parent="WIyWlLk6GJQsqaUBKTNV-1">
          <mxGeometry x="394.25" y="740" width="90.5" height="80" as="geometry" />
        </mxCell>
        <mxCell id="DEYODoF0MY2rl1qmzGjC-21" value="" style="endArrow=classic;html=1;rounded=0;exitX=0.5;exitY=1;exitDx=0;exitDy=0;entryX=0.5;entryY=0;entryDx=0;entryDy=0;" edge="1" parent="WIyWlLk6GJQsqaUBKTNV-1" source="DEYODoF0MY2rl1qmzGjC-18" target="DEYODoF0MY2rl1qmzGjC-20">
          <mxGeometry width="50" height="50" relative="1" as="geometry">
            <mxPoint x="340" y="630" as="sourcePoint" />
            <mxPoint x="390" y="580" as="targetPoint" />
          </mxGeometry>
        </mxCell>
        <mxCell id="DEYODoF0MY2rl1qmzGjC-22" value="" style="endArrow=classic;html=1;rounded=0;exitX=1;exitY=0.5;exitDx=0;exitDy=0;entryX=0.5;entryY=0;entryDx=0;entryDy=0;" edge="1" parent="WIyWlLk6GJQsqaUBKTNV-1" source="DEYODoF0MY2rl1qmzGjC-20" target="DEYODoF0MY2rl1qmzGjC-24">
          <mxGeometry width="50" height="50" relative="1" as="geometry">
            <mxPoint x="340" y="630" as="sourcePoint" />
            <mxPoint x="600" y="790" as="targetPoint" />
            <Array as="points">
              <mxPoint x="536" y="780" />
            </Array>
          </mxGeometry>
        </mxCell>
        <mxCell id="DEYODoF0MY2rl1qmzGjC-26" value="TRUE" style="edgeLabel;html=1;align=center;verticalAlign=middle;resizable=0;points=[];" vertex="1" connectable="0" parent="DEYODoF0MY2rl1qmzGjC-22">
          <mxGeometry x="-0.1967" y="-1" relative="1" as="geometry">
            <mxPoint as="offset" />
          </mxGeometry>
        </mxCell>
        <mxCell id="DEYODoF0MY2rl1qmzGjC-23" value="" style="endArrow=classic;html=1;rounded=0;exitX=0.5;exitY=1;exitDx=0;exitDy=0;entryX=0.5;entryY=0;entryDx=0;entryDy=0;" edge="1" parent="WIyWlLk6GJQsqaUBKTNV-1" source="DEYODoF0MY2rl1qmzGjC-20" target="DEYODoF0MY2rl1qmzGjC-28">
          <mxGeometry width="50" height="50" relative="1" as="geometry">
            <mxPoint x="340" y="730" as="sourcePoint" />
            <mxPoint x="320" y="730" as="targetPoint" />
            <Array as="points" />
          </mxGeometry>
        </mxCell>
        <mxCell id="DEYODoF0MY2rl1qmzGjC-47" value="FALSE" style="edgeLabel;html=1;align=center;verticalAlign=middle;resizable=0;points=[];" vertex="1" connectable="0" parent="DEYODoF0MY2rl1qmzGjC-23">
          <mxGeometry x="0.2857" y="-1" relative="1" as="geometry">
            <mxPoint as="offset" />
          </mxGeometry>
        </mxCell>
        <mxCell id="DEYODoF0MY2rl1qmzGjC-24" value="stampo num2" style="shape=parallelogram;perimeter=parallelogramPerimeter;whiteSpace=wrap;html=1;fixedSize=1;" vertex="1" parent="WIyWlLk6GJQsqaUBKTNV-1">
          <mxGeometry x="485.75" y="820" width="100" height="30" as="geometry" />
        </mxCell>
        <mxCell id="DEYODoF0MY2rl1qmzGjC-27" value="" style="endArrow=classic;html=1;rounded=0;exitX=0.5;exitY=1;exitDx=0;exitDy=0;entryX=1;entryY=0.5;entryDx=0;entryDy=0;" edge="1" parent="WIyWlLk6GJQsqaUBKTNV-1" source="DEYODoF0MY2rl1qmzGjC-24" target="DEYODoF0MY2rl1qmzGjC-28">
          <mxGeometry width="50" height="50" relative="1" as="geometry">
            <mxPoint x="354.5" y="900" as="sourcePoint" />
            <mxPoint x="530" y="910" as="targetPoint" />
            <Array as="points">
              <mxPoint x="536" y="878" />
            </Array>
          </mxGeometry>
        </mxCell>
        <mxCell id="DEYODoF0MY2rl1qmzGjC-28" value="" style="ellipse;whiteSpace=wrap;html=1;aspect=fixed;" vertex="1" parent="WIyWlLk6GJQsqaUBKTNV-1">
          <mxGeometry x="432" y="870" width="15" height="15" as="geometry" />
        </mxCell>
        <mxCell id="DEYODoF0MY2rl1qmzGjC-29" value="" style="endArrow=classic;html=1;rounded=0;exitX=0.5;exitY=1;exitDx=0;exitDy=0;entryX=0.5;entryY=0;entryDx=0;entryDy=0;" edge="1" parent="WIyWlLk6GJQsqaUBKTNV-1" source="DEYODoF0MY2rl1qmzGjC-28" target="DEYODoF0MY2rl1qmzGjC-31">
          <mxGeometry width="50" height="50" relative="1" as="geometry">
            <mxPoint x="340" y="830" as="sourcePoint" />
            <mxPoint x="370" y="900" as="targetPoint" />
          </mxGeometry>
        </mxCell>
        <mxCell id="DEYODoF0MY2rl1qmzGjC-31" value="num1 &amp;gt; media" style="rhombus;whiteSpace=wrap;html=1;" vertex="1" parent="WIyWlLk6GJQsqaUBKTNV-1">
          <mxGeometry x="394.25" y="920" width="90.5" height="70" as="geometry" />
        </mxCell>
        <mxCell id="DEYODoF0MY2rl1qmzGjC-32" value="stampo num1" style="shape=parallelogram;perimeter=parallelogramPerimeter;whiteSpace=wrap;html=1;fixedSize=1;" vertex="1" parent="WIyWlLk6GJQsqaUBKTNV-1">
          <mxGeometry x="484.75" y="990" width="100" height="30" as="geometry" />
        </mxCell>
        <mxCell id="DEYODoF0MY2rl1qmzGjC-33" value="" style="endArrow=classic;html=1;rounded=0;exitX=1;exitY=0.5;exitDx=0;exitDy=0;entryX=0.5;entryY=0;entryDx=0;entryDy=0;" edge="1" parent="WIyWlLk6GJQsqaUBKTNV-1" source="DEYODoF0MY2rl1qmzGjC-31" target="DEYODoF0MY2rl1qmzGjC-32">
          <mxGeometry width="50" height="50" relative="1" as="geometry">
            <mxPoint x="550" y="960" as="sourcePoint" />
            <mxPoint x="600" y="910" as="targetPoint" />
            <Array as="points">
              <mxPoint x="535" y="955" />
            </Array>
          </mxGeometry>
        </mxCell>
        <mxCell id="DEYODoF0MY2rl1qmzGjC-34" value="TRUE" style="edgeLabel;html=1;align=center;verticalAlign=middle;resizable=0;points=[];" vertex="1" connectable="0" parent="DEYODoF0MY2rl1qmzGjC-33">
          <mxGeometry x="-0.0958" y="-1" relative="1" as="geometry">
            <mxPoint as="offset" />
          </mxGeometry>
        </mxCell>
        <mxCell id="DEYODoF0MY2rl1qmzGjC-35" value="" style="endArrow=classic;html=1;rounded=0;exitX=0.5;exitY=1;exitDx=0;exitDy=0;entryX=1;entryY=0.5;entryDx=0;entryDy=0;" edge="1" parent="WIyWlLk6GJQsqaUBKTNV-1" source="DEYODoF0MY2rl1qmzGjC-32" target="DEYODoF0MY2rl1qmzGjC-36">
          <mxGeometry width="50" height="50" relative="1" as="geometry">
            <mxPoint x="340" y="830" as="sourcePoint" />
            <mxPoint x="535" y="1090" as="targetPoint" />
            <Array as="points">
              <mxPoint x="535" y="1045" />
            </Array>
          </mxGeometry>
        </mxCell>
        <mxCell id="DEYODoF0MY2rl1qmzGjC-36" value="" style="ellipse;whiteSpace=wrap;html=1;aspect=fixed;" vertex="1" parent="WIyWlLk6GJQsqaUBKTNV-1">
          <mxGeometry x="435.25" y="1040" width="10.5" height="10.5" as="geometry" />
        </mxCell>
        <mxCell id="DEYODoF0MY2rl1qmzGjC-37" value="" style="endArrow=classic;html=1;rounded=0;exitX=0.5;exitY=1;exitDx=0;exitDy=0;entryX=0.5;entryY=0;entryDx=0;entryDy=0;" edge="1" parent="WIyWlLk6GJQsqaUBKTNV-1" source="DEYODoF0MY2rl1qmzGjC-31" target="DEYODoF0MY2rl1qmzGjC-36">
          <mxGeometry width="50" height="50" relative="1" as="geometry">
            <mxPoint x="340" y="930" as="sourcePoint" />
            <mxPoint x="390" y="880" as="targetPoint" />
          </mxGeometry>
        </mxCell>
        <mxCell id="DEYODoF0MY2rl1qmzGjC-43" value="FALSE" style="edgeLabel;html=1;align=center;verticalAlign=middle;resizable=0;points=[];" vertex="1" connectable="0" parent="DEYODoF0MY2rl1qmzGjC-37">
          <mxGeometry x="-0.4382" y="2" relative="1" as="geometry">
            <mxPoint as="offset" />
          </mxGeometry>
        </mxCell>
        <mxCell id="DEYODoF0MY2rl1qmzGjC-38" value="" style="endArrow=classic;html=1;rounded=0;exitX=0.5;exitY=1;exitDx=0;exitDy=0;entryX=0.5;entryY=0;entryDx=0;entryDy=0;" edge="1" parent="WIyWlLk6GJQsqaUBKTNV-1" source="DEYODoF0MY2rl1qmzGjC-36" target="DEYODoF0MY2rl1qmzGjC-39">
          <mxGeometry width="50" height="50" relative="1" as="geometry">
            <mxPoint x="340" y="930" as="sourcePoint" />
            <mxPoint x="441" y="1080" as="targetPoint" />
          </mxGeometry>
        </mxCell>
        <mxCell id="DEYODoF0MY2rl1qmzGjC-39" value="while (!isZero)" style="rhombus;whiteSpace=wrap;html=1;" vertex="1" parent="WIyWlLk6GJQsqaUBKTNV-1">
          <mxGeometry x="395" y="1080" width="90" height="70" as="geometry" />
        </mxCell>
        <mxCell id="DEYODoF0MY2rl1qmzGjC-41" value="" style="endArrow=classic;html=1;rounded=0;exitX=0;exitY=0.5;exitDx=0;exitDy=0;entryX=0;entryY=0.5;entryDx=0;entryDy=0;" edge="1" parent="WIyWlLk6GJQsqaUBKTNV-1" source="DEYODoF0MY2rl1qmzGjC-39" target="DEYODoF0MY2rl1qmzGjC-11">
          <mxGeometry width="50" height="50" relative="1" as="geometry">
            <mxPoint x="340" y="1030" as="sourcePoint" />
            <mxPoint x="390" y="980" as="targetPoint" />
            <Array as="points">
              <mxPoint x="340" y="1115" />
              <mxPoint x="340" y="265" />
            </Array>
          </mxGeometry>
        </mxCell>
        <mxCell id="DEYODoF0MY2rl1qmzGjC-42" value="TRUE" style="edgeLabel;html=1;align=center;verticalAlign=middle;resizable=0;points=[];" vertex="1" connectable="0" parent="DEYODoF0MY2rl1qmzGjC-41">
          <mxGeometry x="-0.92" relative="1" as="geometry">
            <mxPoint as="offset" />
          </mxGeometry>
        </mxCell>
        <mxCell id="DEYODoF0MY2rl1qmzGjC-49" value="" style="endArrow=classic;html=1;rounded=0;exitX=0.5;exitY=1;exitDx=0;exitDy=0;entryX=0.5;entryY=0;entryDx=0;entryDy=0;" edge="1" parent="WIyWlLk6GJQsqaUBKTNV-1" source="DEYODoF0MY2rl1qmzGjC-39" target="DEYODoF0MY2rl1qmzGjC-50">
          <mxGeometry width="50" height="50" relative="1" as="geometry">
            <mxPoint x="340" y="1130" as="sourcePoint" />
            <mxPoint x="440" y="1200" as="targetPoint" />
          </mxGeometry>
        </mxCell>
        <mxCell id="DEYODoF0MY2rl1qmzGjC-50" value="FINE" style="ellipse;whiteSpace=wrap;html=1;" vertex="1" parent="WIyWlLk6GJQsqaUBKTNV-1">
          <mxGeometry x="400" y="1200" width="80" height="40" as="geometry" />
        </mxCell>
      </root>
    </mxGraphModel>
  </diagram>
</mxfile>
